<?xml version="1.0" encoding="UTF-8" standalone="no"?>
<!DOCTYPE svg PUBLIC "-//W3C//DTD SVG 1.1//EN"
 "http://www.w3.org/Graphics/SVG/1.1/DTD/svg11.dtd">
<!-- Generated by graphviz version 2.43.0 (0)
 -->
<!-- Title: IPC Pages: 1 -->
<svg width="3167pt" height="1153pt"
 viewBox="0.00 0.00 3166.68 1152.68" xmlns="http://www.w3.org/2000/svg" xmlns:xlink="http://www.w3.org/1999/xlink">
<g id="graph0" class="graph" transform="scale(1 1) rotate(0) translate(15.84 1136.84)">
<title>IPC</title>
<polygon fill="#0f172a" stroke="transparent" points="-15.84,15.84 -15.84,-1136.84 3150.84,-1136.84 3150.84,15.84 -15.84,15.84"/>
<text text-anchor="start" x="1243" y="-1076.4" font-family="Helvetica,Arial,sans-serif" font-weight="bold" font-size="52.00" fill="#f1f5f9">balancer_bot IPC Flow</text>
<g id="clust1" class="cluster">
<title>cluster_sim</title>
<path fill="#1e293b" stroke="#475569" stroke-width="4" d="M20,-297C20,-297 3115,-297 3115,-297 3121,-297 3127,-303 3127,-309 3127,-309 3127,-1036 3127,-1036 3127,-1042 3121,-1048 3115,-1048 3115,-1048 20,-1048 20,-1048 14,-1048 8,-1042 8,-1036 8,-1036 8,-309 8,-309 8,-303 14,-297 20,-297"/>
<text text-anchor="start" x="1366.5" y="-1013" font-family="Helvetica,Arial,sans-serif" font-weight="bold" font-size="40.00" fill="#f1f5f9">Balancer Services</text>
</g>
<g id="clust2" class="cluster">
<title>cluster_sockets</title>
<path fill="#2a1b07" stroke="#f59e0b" stroke-width="6" d="M798.5,-8C798.5,-8 1118.5,-8 1118.5,-8 1124.5,-8 1130.5,-14 1130.5,-20 1130.5,-20 1130.5,-277 1130.5,-277 1130.5,-283 1124.5,-289 1118.5,-289 1118.5,-289 798.5,-289 798.5,-289 792.5,-289 786.5,-283 786.5,-277 786.5,-277 786.5,-20 786.5,-20 786.5,-14 792.5,-8 798.5,-8"/>
<text text-anchor="start" x="794.5" y="-254" font-family="Helvetica,Arial,sans-serif" font-weight="bold" font-size="40.00" fill="#f1f5f9">Network Layer</text>
</g>
<!-- ImuService -->
<g id="node1" class="node">
<title>ImuService</title>
<path fill="#0369a1" stroke="#f1f5f9" stroke-width="4" d="M541,-740C541,-740 54,-740 54,-740 48,-740 42,-734 42,-728 42,-728 42,-566 42,-566 42,-560 48,-554 54,-554 54,-554 541,-554 541,-554 547,-554 553,-560 553,-566 553,-566 553,-728 553,-728 553,-734 547,-740 541,-740"/>
<text text-anchor="start" x="202.5" y="-711" font-family="Helvetica,Arial,sans-serif" font-weight="bold" font-size="30.00" fill="#ffffff">ImuService</text>
<text text-anchor="start" x="51" y="-685.8" font-family="Helvetica,Arial,sans-serif" font-size="24.00" fill="#ffffff">Consumes raw accelerometer/gyroscope</text>
<text text-anchor="start" x="92.5" y="-661.8" font-family="Helvetica,Arial,sans-serif" font-size="24.00" fill="#ffffff">samples and publishes `ImuData`</text>
<text text-anchor="start" x="133.5" y="-637.8" font-family="Helvetica,Arial,sans-serif" font-size="24.00" fill="#ffffff">samples that represent the</text>
<text text-anchor="start" x="102" y="-613.8" font-family="Helvetica,Arial,sans-serif" font-size="24.00" fill="#ffffff">controller&#39;s current view of body</text>
<text text-anchor="start" x="90" y="-589.8" font-family="Helvetica,Arial,sans-serif" font-size="24.00" fill="#ffffff">pitch, angular motion, and sample</text>
<text text-anchor="start" x="266" y="-565.8" font-family="Helvetica,Arial,sans-serif" font-size="24.00" fill="#ffffff">time.</text>
</g>
<!-- ImuService&#45;&gt;ImuService -->
<g id="edge7" class="edge">
<title>ImuService&#45;&gt;ImuService</title>
<path fill="none" stroke="#64748b" stroke-width="3" stroke-dasharray="5,2" d="M233.81,-740.2C237.03,-765.62 258.26,-785 297.5,-785 329.39,-785 349.38,-772.21 357.48,-753.77"/>
<polygon fill="#64748b" stroke="#64748b" stroke-width="3" points="362.23,-755 361.19,-740.2 352.78,-752.41 362.23,-755"/>
<text text-anchor="middle" x="297.5" y="-791.4" font-family="Helvetica,Arial,sans-serif" font-size="22.00" fill="#cbd5e1">ImuRawData</text>
</g>
<!-- ControlService -->
<g id="node3" class="node">
<title>ControlService</title>
<path fill="#0369a1" stroke="#f1f5f9" stroke-width="4" d="M1177,-754C1177,-754 740,-754 740,-754 734,-754 728,-748 728,-742 728,-742 728,-580 728,-580 728,-574 734,-568 740,-568 740,-568 1177,-568 1177,-568 1183,-568 1189,-574 1189,-580 1189,-580 1189,-742 1189,-742 1189,-748 1183,-754 1177,-754"/>
<text text-anchor="start" x="834" y="-725" font-family="Helvetica,Arial,sans-serif" font-weight="bold" font-size="30.00" fill="#ffffff">ControlService</text>
<text text-anchor="start" x="742" y="-699.8" font-family="Helvetica,Arial,sans-serif" font-size="24.00" fill="#ffffff">Owns the balancing control pipeline</text>
<text text-anchor="start" x="788.5" y="-675.8" font-family="Helvetica,Arial,sans-serif" font-size="24.00" fill="#ffffff">that converts `PhysicsTick`,</text>
<text text-anchor="start" x="737" y="-651.8" font-family="Helvetica,Arial,sans-serif" font-size="24.00" fill="#ffffff">`ImuData`, `JoystickCommand`, and</text>
<text text-anchor="start" x="785.5" y="-627.8" font-family="Helvetica,Arial,sans-serif" font-size="24.00" fill="#ffffff">`MotorFeedback` inputs into</text>
<text text-anchor="start" x="743.5" y="-603.8" font-family="Helvetica,Arial,sans-serif" font-size="24.00" fill="#ffffff">wheel&#45;speed targets and streaming</text>
<text text-anchor="start" x="835.5" y="-579.8" font-family="Helvetica,Arial,sans-serif" font-size="24.00" fill="#ffffff">controller telemetry.</text>
</g>
<!-- ImuService&#45;&gt;ControlService -->
<g id="edge6" class="edge">
<title>ImuService&#45;&gt;ControlService</title>
<path fill="none" stroke="#64748b" stroke-width="3" stroke-dasharray="5,2" d="M553.29,-652.41C605.96,-653.53 661.31,-654.71 713.58,-655.82"/>
<polygon fill="#64748b" stroke="#64748b" stroke-width="3" points="713.78,-660.72 727.88,-656.12 713.99,-650.93 713.78,-660.72"/>
<text text-anchor="middle" x="640.5" y="-661.4" font-family="Helvetica,Arial,sans-serif" font-size="22.00" fill="#cbd5e1">ImuData</text>
</g>
<!-- TimeService -->
<g id="node2" class="node">
<title>TimeService</title>
<path fill="#0369a1" stroke="#f1f5f9" stroke-width="4" d="M526.5,-496C526.5,-496 68.5,-496 68.5,-496 62.5,-496 56.5,-490 56.5,-484 56.5,-484 56.5,-370 56.5,-370 56.5,-364 62.5,-358 68.5,-358 68.5,-358 526.5,-358 526.5,-358 532.5,-358 538.5,-364 538.5,-370 538.5,-370 538.5,-484 538.5,-484 538.5,-490 532.5,-496 526.5,-496"/>
<text text-anchor="start" x="193.5" y="-467" font-family="Helvetica,Arial,sans-serif" font-weight="bold" font-size="30.00" fill="#ffffff">TimeService</text>
<text text-anchor="start" x="91.5" y="-441.8" font-family="Helvetica,Arial,sans-serif" font-size="24.00" fill="#ffffff">Publishes the global `PhysicsTick`</text>
<text text-anchor="start" x="85.5" y="-417.8" font-family="Helvetica,Arial,sans-serif" font-size="24.00" fill="#ffffff">heartbeat that drives deterministic</text>
<text text-anchor="start" x="65.5" y="-393.8" font-family="Helvetica,Arial,sans-serif" font-size="24.00" fill="#ffffff">controller execution and advances the</text>
<text text-anchor="start" x="150.5" y="-369.8" font-family="Helvetica,Arial,sans-serif" font-size="24.00" fill="#ffffff">shared simulation clock.</text>
</g>
<!-- TimeService&#45;&gt;ControlService -->
<g id="edge10" class="edge">
<title>TimeService&#45;&gt;ControlService</title>
<path fill="none" stroke="#64748b" stroke-width="3" stroke-dasharray="5,2" d="M493.1,-496.1C562.43,-520.72 641.39,-548.75 714.28,-574.64"/>
<polygon fill="#64748b" stroke="#64748b" stroke-width="3" points="712.99,-579.38 727.82,-579.44 716.27,-570.14 712.99,-579.38"/>
<text text-anchor="middle" x="640.5" y="-570.4" font-family="Helvetica,Arial,sans-serif" font-size="22.00" fill="#cbd5e1">PhysicsTick</text>
</g>
<!-- MotorService -->
<g id="node4" class="node">
<title>MotorService</title>
<path fill="#0369a1" stroke="#f1f5f9" stroke-width="4" d="M3081,-662C3081,-662 2582,-662 2582,-662 2576,-662 2570,-656 2570,-650 2570,-650 2570,-560 2570,-560 2570,-554 2576,-548 2582,-548 2582,-548 3081,-548 3081,-548 3087,-548 3093,-554 3093,-560 3093,-560 3093,-650 3093,-650 3093,-656 3087,-662 3081,-662"/>
<text text-anchor="start" x="2718.5" y="-633" font-family="Helvetica,Arial,sans-serif" font-weight="bold" font-size="30.00" fill="#ffffff">MotorService</text>
<text text-anchor="start" x="2620.5" y="-607.8" font-family="Helvetica,Arial,sans-serif" font-size="24.00" fill="#ffffff">Implements the actuator boundary</text>
<text text-anchor="start" x="2579" y="-583.8" font-family="Helvetica,Arial,sans-serif" font-size="24.00" fill="#ffffff">between reflected IPC commands and the</text>
<text text-anchor="start" x="2691" y="-559.8" font-family="Helvetica,Arial,sans-serif" font-size="24.00" fill="#ffffff">low&#45;level motor runner.</text>
</g>
<!-- TimeService&#45;&gt;MotorService -->
<g id="edge11" class="edge">
<title>TimeService&#45;&gt;MotorService</title>
<path fill="none" stroke="#64748b" stroke-width="3" stroke-dasharray="5,2" d="M538.77,-404.33C982.18,-364.78 1912.7,-293.12 2229,-356 2406.54,-391.3 2597.37,-479.89 2715.37,-541.28"/>
<polygon fill="#64748b" stroke="#64748b" stroke-width="3" points="2713.3,-545.73 2727.97,-547.88 2717.84,-537.04 2713.3,-545.73"/>
<text text-anchor="middle" x="1464" y="-358.4" font-family="Helvetica,Arial,sans-serif" font-size="22.00" fill="#cbd5e1">PhysicsTick</text>
</g>
<!-- ControlService&#45;&gt;MotorService -->
<g id="edge4" class="edge">
<title>ControlService&#45;&gt;MotorService</title>
<path fill="none" stroke="#64748b" stroke-width="3" stroke-dasharray="5,2" d="M1189.06,-718.13C1197.45,-719.55 1205.79,-720.85 1214,-722 1799.81,-804.26 1969.13,-857.32 2545,-722 2597.9,-709.57 2653.71,-688.62 2701.81,-667.85"/>
<polygon fill="#64748b" stroke="#64748b" stroke-width="3" points="2703.98,-672.25 2714.84,-662.15 2700.05,-663.27 2703.98,-672.25"/>
<text text-anchor="middle" x="1984" y="-810.4" font-family="Helvetica,Arial,sans-serif" font-size="22.00" fill="#cbd5e1">MotorTargets</text>
</g>
<!-- UdpBridge -->
<g id="node6" class="node">
<title>UdpBridge</title>
<path fill="#0f766e" stroke="#f1f5f9" stroke-width="4" d="M2217,-620C2217,-620 1751,-620 1751,-620 1745,-620 1739,-614 1739,-608 1739,-608 1739,-390 1739,-390 1739,-384 1745,-378 1751,-378 1751,-378 2217,-378 2217,-378 2223,-378 2229,-384 2229,-390 2229,-390 2229,-608 2229,-608 2229,-614 2223,-620 2217,-620"/>
<text text-anchor="start" x="1871" y="-584.6" font-family="Helvetica,Arial,sans-serif" font-weight="bold" font-size="38.00" fill="#ffffff">UdpBridge</text>
<text text-anchor="start" x="1806.5" y="-557.8" font-family="Helvetica,Arial,sans-serif" font-size="24.00" fill="#ffffff">Stateful transport bridge that</text>
<text text-anchor="start" x="1748" y="-533.8" font-family="Helvetica,Arial,sans-serif" font-size="24.00" fill="#ffffff">connects the internal `MessageBus` to</text>
<text text-anchor="start" x="1768.5" y="-509.8" font-family="Helvetica,Arial,sans-serif" font-size="24.00" fill="#ffffff">external UDP runtime clients. In the</text>
<text text-anchor="start" x="1780" y="-485.8" font-family="Helvetica,Arial,sans-serif" font-size="24.00" fill="#ffffff">production Pi runtime it listens on</text>
<text text-anchor="start" x="1767" y="-461.8" font-family="Helvetica,Arial,sans-serif" font-size="24.00" fill="#ffffff">port `9000`; the telemetry server is</text>
<text text-anchor="start" x="1759.5" y="-437.8" font-family="Helvetica,Arial,sans-serif" font-size="24.00" fill="#ffffff">the primary peer, while SIL and other</text>
<text text-anchor="start" x="1790" y="-413.8" font-family="Helvetica,Arial,sans-serif" font-size="24.00" fill="#ffffff">authorized clients use the same</text>
<text text-anchor="start" x="1925" y="-389.8" font-family="Helvetica,Arial,sans-serif" font-size="24.00" fill="#ffffff">boundary.</text>
</g>
<!-- ControlService&#45;&gt;UdpBridge -->
<g id="edge5" class="edge">
<title>ControlService&#45;&gt;UdpBridge</title>
<path fill="none" stroke="#64748b" stroke-width="3" stroke-dasharray="5,2" d="M1157.34,-567.9C1176.21,-561.34 1195.29,-555.53 1214,-551 1307.76,-528.28 1539.87,-514.66 1724.73,-507.09"/>
<polygon fill="#64748b" stroke="#64748b" stroke-width="3" points="1725,-511.98 1738.79,-506.52 1724.61,-502.19 1725,-511.98"/>
<text text-anchor="middle" x="1464" y="-581.4" font-family="Helvetica,Arial,sans-serif" font-size="22.00" fill="#cbd5e1">MotorTargets, PidConfigStatus</text>
<text text-anchor="middle" x="1464" y="-557.4" font-family="Helvetica,Arial,sans-serif" font-size="22.00" fill="#cbd5e1">SystemTelemetry</text>
</g>
<!-- MotorService&#45;&gt;ControlService -->
<g id="edge9" class="edge">
<title>MotorService&#45;&gt;ControlService</title>
<path fill="none" stroke="#64748b" stroke-width="3" stroke-dasharray="5,2" d="M2569.65,-639.66C2250.01,-677.53 1691.96,-728.71 1214,-696 1210.45,-695.76 1206.87,-695.49 1203.27,-695.22"/>
<polygon fill="#64748b" stroke="#64748b" stroke-width="3" points="1203.65,-690.33 1189.29,-694.05 1202.84,-700.1 1203.65,-690.33"/>
<text text-anchor="middle" x="1984" y="-708.4" font-family="Helvetica,Arial,sans-serif" font-size="22.00" fill="#cbd5e1">MotorFeedback</text>
</g>
<!-- InputService -->
<g id="node5" class="node">
<title>InputService</title>
<path fill="#0369a1" stroke="#f1f5f9" stroke-width="4" d="M3075,-958C3075,-958 2588,-958 2588,-958 2582,-958 2576,-952 2576,-946 2576,-946 2576,-832 2576,-832 2576,-826 2582,-820 2588,-820 2588,-820 3075,-820 3075,-820 3081,-820 3087,-826 3087,-832 3087,-832 3087,-946 3087,-946 3087,-952 3081,-958 3075,-958"/>
<text text-anchor="start" x="2724" y="-929" font-family="Helvetica,Arial,sans-serif" font-weight="bold" font-size="30.00" fill="#ffffff">InputService</text>
<text text-anchor="start" x="2631" y="-903.8" font-family="Helvetica,Arial,sans-serif" font-size="24.00" fill="#ffffff">Arbitrates hardware and external</text>
<text text-anchor="start" x="2654.5" y="-879.8" font-family="Helvetica,Arial,sans-serif" font-size="24.00" fill="#ffffff">joystick input, then publishes</text>
<text text-anchor="start" x="2585" y="-855.8" font-family="Helvetica,Arial,sans-serif" font-size="24.00" fill="#ffffff">resolved normalized `JoystickCommand`</text>
<text text-anchor="start" x="2702" y="-831.8" font-family="Helvetica,Arial,sans-serif" font-size="24.00" fill="#ffffff">messages to the bus.</text>
</g>
<!-- InputService&#45;&gt;ControlService -->
<g id="edge8" class="edge">
<title>InputService&#45;&gt;ControlService</title>
<path fill="none" stroke="#64748b" stroke-width="3" stroke-dasharray="5,2" d="M2575.89,-899.55C2253.08,-906.24 1682.19,-895.67 1214,-768 1203.51,-765.14 1192.89,-761.95 1182.23,-758.5"/>
<polygon fill="#64748b" stroke="#64748b" stroke-width="3" points="1183.55,-753.78 1168.72,-754.01 1180.46,-763.08 1183.55,-753.78"/>
<text text-anchor="middle" x="1984" y="-903.4" font-family="Helvetica,Arial,sans-serif" font-size="22.00" fill="#cbd5e1">JoystickCommand</text>
</g>
<!-- UdpBridge&#45;&gt;ImuService -->
<g id="edge13" class="edge">
<title>UdpBridge&#45;&gt;ImuService</title>
<path fill="none" stroke="#64748b" stroke-width="3" stroke-dasharray="5,2" d="M1738.84,-483.18C1484.61,-471.43 1075.71,-465.85 728,-522 675.19,-530.53 619.71,-543.52 566.81,-557.95"/>
<polygon fill="#64748b" stroke="#64748b" stroke-width="3" points="565.25,-553.3 553.06,-561.75 567.86,-562.74 565.25,-553.3"/>
<text text-anchor="middle" x="958.5" y="-528.4" font-family="Helvetica,Arial,sans-serif" font-size="22.00" fill="#cbd5e1">ImuRawData</text>
</g>
<!-- UdpBridge&#45;&gt;ControlService -->
<g id="edge12" class="edge">
<title>UdpBridge&#45;&gt;ControlService</title>
<path fill="none" stroke="#64748b" stroke-width="3" stroke-dasharray="5,2" d="M1738.8,-599.75C1730.49,-602.02 1722.21,-604.12 1714,-606 1546.28,-644.51 1352.6,-658 1203.47,-662.01"/>
<polygon fill="#64748b" stroke="#64748b" stroke-width="3" points="1203.05,-657.11 1189.18,-662.36 1203.3,-666.91 1203.05,-657.11"/>
<text text-anchor="middle" x="1464" y="-667.4" font-family="Helvetica,Arial,sans-serif" font-size="22.00" fill="#cbd5e1">PhysicsTick, PidConfigOverride</text>
</g>
<!-- UdpBridge&#45;&gt;MotorService -->
<g id="edge15" class="edge">
<title>UdpBridge&#45;&gt;MotorService</title>
<path fill="none" stroke="#64748b" stroke-width="3" stroke-dasharray="5,2" d="M2229.27,-529.62C2331.38,-542.43 2450.51,-557.36 2555.66,-570.54"/>
<polygon fill="#64748b" stroke="#64748b" stroke-width="3" points="2555.24,-575.43 2569.74,-572.31 2556.46,-565.7 2555.24,-575.43"/>
<text text-anchor="middle" x="2399.5" y="-573.4" font-family="Helvetica,Arial,sans-serif" font-size="22.00" fill="#cbd5e1">PhysicsTick</text>
</g>
<!-- UdpBridge&#45;&gt;InputService -->
<g id="edge14" class="edge">
<title>UdpBridge&#45;&gt;InputService</title>
<path fill="none" stroke="#64748b" stroke-width="3" stroke-dasharray="5,2" d="M2229.27,-611.67C2370.12,-676.64 2543.35,-756.55 2667.63,-813.87"/>
<polygon fill="#64748b" stroke="#64748b" stroke-width="3" points="2665.87,-818.46 2680.63,-819.87 2669.97,-809.56 2665.87,-818.46"/>
<text text-anchor="middle" x="2399.5" y="-757.4" font-family="Helvetica,Arial,sans-serif" font-size="22.00" fill="#cbd5e1">ExternalJoystickCommand</text>
</g>
<!-- TX -->
<g id="node7" class="node">
<title>TX</title>
<path fill="#b45309" stroke="#f1f5f9" stroke-width="4" d="M1012.5,-212.5C1012.5,-212.5 904.5,-212.5 904.5,-212.5 898.5,-212.5 892.5,-206.5 892.5,-200.5 892.5,-200.5 892.5,-179.5 892.5,-179.5 892.5,-173.5 898.5,-167.5 904.5,-167.5 904.5,-167.5 1012.5,-167.5 1012.5,-167.5 1018.5,-167.5 1024.5,-173.5 1024.5,-179.5 1024.5,-179.5 1024.5,-200.5 1024.5,-200.5 1024.5,-206.5 1018.5,-212.5 1012.5,-212.5"/>
<text text-anchor="start" x="901.5" y="-183.5" font-family="Helvetica,Arial,sans-serif" font-weight="bold" font-size="30.00" fill="#ffffff">UDP In</text>
</g>
<!-- TX&#45;&gt;UdpBridge -->
<g id="edge3" class="edge">
<title>TX&#45;&gt;UdpBridge</title>
<path fill="none" stroke="#f1f5f9" stroke-width="5" d="M1024.51,-188.22C1184.18,-184.75 1591.49,-181.66 1714,-236 1779.21,-264.93 1837.75,-317.05 1883.43,-367.31"/>
<polygon fill="#f1f5f9" stroke="#f1f5f9" stroke-width="5" points="1879.09,-371.64 1892.99,-378 1888.22,-363.48 1879.09,-371.64"/>
<text text-anchor="middle" x="1464" y="-300" font-family="Helvetica,Arial,sans-serif" font-size="25.00" fill="#cbd5e1">Inbound Traffic:</text>
<text text-anchor="middle" x="1464" y="-272" font-family="Helvetica,Arial,sans-serif" font-size="25.00" fill="#cbd5e1">ExternalJoystickCommand, ImuRawData</text>
<text text-anchor="middle" x="1464" y="-244" font-family="Helvetica,Arial,sans-serif" font-size="25.00" fill="#cbd5e1">PhysicsTick, PidConfigOverride</text>
</g>
<!-- RX -->
<g id="node8" class="node">
<title>RX</title>
<path fill="#b45309" stroke="#f1f5f9" stroke-width="4" d="M1026.5,-77.5C1026.5,-77.5 890.5,-77.5 890.5,-77.5 884.5,-77.5 878.5,-71.5 878.5,-65.5 878.5,-65.5 878.5,-44.5 878.5,-44.5 878.5,-38.5 884.5,-32.5 890.5,-32.5 890.5,-32.5 1026.5,-32.5 1026.5,-32.5 1032.5,-32.5 1038.5,-38.5 1038.5,-44.5 1038.5,-44.5 1038.5,-65.5 1038.5,-65.5 1038.5,-71.5 1032.5,-77.5 1026.5,-77.5"/>
<text text-anchor="start" x="887.5" y="-48.5" font-family="Helvetica,Arial,sans-serif" font-weight="bold" font-size="30.00" fill="#ffffff">UDP Out</text>
</g>
<!-- TX&#45;&gt;RX -->
<!-- RX&#45;&gt;UdpBridge -->
<g id="edge16" class="edge">
<title>RX&#45;&gt;UdpBridge</title>
<path fill="none" stroke="#f1f5f9" stroke-width="5" d="M1052.69,-34.26C1202.94,-6.07 1503.16,28.13 1714,-92 1823.65,-154.47 1896.79,-282.1 1938.77,-377.87"/>
<polygon fill="#f1f5f9" stroke="#f1f5f9" stroke-width="5" points="1051.22,-28.3 1038.63,-36.96 1053.53,-40.33 1051.22,-28.3"/>
<text text-anchor="middle" x="1464" y="-156" font-family="Helvetica,Arial,sans-serif" font-size="25.00" fill="#cbd5e1">Outbound Traffic:</text>
<text text-anchor="middle" x="1464" y="-128" font-family="Helvetica,Arial,sans-serif" font-size="25.00" fill="#cbd5e1">MotorTargets, PidConfigStatus</text>
<text text-anchor="middle" x="1464" y="-100" font-family="Helvetica,Arial,sans-serif" font-size="25.00" fill="#cbd5e1">SystemTelemetry</text>
</g>
<!-- Client -->
<g id="node9" class="node">
<title>Client</title>
<path fill="#047857" stroke="#f1f5f9" stroke-width="4" d="M351,-146.5C351,-146.5 244,-146.5 244,-146.5 238,-146.5 232,-140.5 232,-134.5 232,-134.5 232,-109.5 232,-109.5 232,-103.5 238,-97.5 244,-97.5 244,-97.5 351,-97.5 351,-97.5 357,-97.5 363,-103.5 363,-109.5 363,-109.5 363,-134.5 363,-134.5 363,-140.5 357,-146.5 351,-146.5"/>
<text text-anchor="start" x="241" y="-114.3" font-family="Helvetica,Arial,sans-serif" font-weight="bold" font-size="34.00" fill="#ffffff">Client</text>
</g>
<!-- Client&#45;&gt;TX -->
<g id="edge2" class="edge">
<title>Client&#45;&gt;TX</title>
<path fill="none" stroke="#f1f5f9" stroke-width="5" d="M363.19,-128.68C484.63,-141.21 746.33,-168.21 878.17,-181.81"/>
<polygon fill="#f1f5f9" stroke="#f1f5f9" stroke-width="5" points="877.88,-187.94 892.44,-183.29 879.14,-175.76 877.88,-187.94"/>
<text text-anchor="middle" x="640.5" y="-169.4" font-family="Helvetica,Arial,sans-serif" font-size="22.00" fill="#cbd5e1">send</text>
</g>
<!-- Client&#45;&gt;RX -->
<g id="edge17" class="edge">
<title>Client&#45;&gt;RX</title>
<path fill="none" stroke="#f1f5f9" stroke-width="5" d="M377.29,-113.99C503.99,-101.11 751.62,-75.93 878.47,-63.03"/>
<polygon fill="#f1f5f9" stroke="#f1f5f9" stroke-width="5" points="376.5,-107.91 363.19,-115.42 377.74,-120.1 376.5,-107.91"/>
<text text-anchor="middle" x="640.5" y="-99.4" font-family="Helvetica,Arial,sans-serif" font-size="22.00" fill="#cbd5e1">receive</text>
</g>
</g>
</svg>
