<?xml version="1.0" encoding="UTF-8" standalone="no"?>
<!DOCTYPE svg PUBLIC "-//W3C//DTD SVG 1.1//EN"
 "http://www.w3.org/Graphics/SVG/1.1/DTD/svg11.dtd">
<!-- Generated by graphviz version 2.42.4 (0)
 -->
<!-- Title: IPC Pages: 1 -->
<svg width="1765pt" height="811pt"
 viewBox="0.00 0.00 1764.68 810.68" xmlns="http://www.w3.org/2000/svg" xmlns:xlink="http://www.w3.org/1999/xlink">
<g id="graph0" class="graph" transform="scale(1 1) rotate(0) translate(15.84 794.84)">
<title>IPC</title>
<polygon fill="#0f172a" stroke="transparent" points="-15.84,15.84 -15.84,-794.84 1748.84,-794.84 1748.84,15.84 -15.84,15.84"/>
<text text-anchor="start" x="542" y="-734.4" font-family="Helvetica,Arial,sans-serif" font-weight="bold" font-size="52.00" fill="#f1f5f9">balancer_bot IPC Flow</text>
<g id="clust1" class="cluster">
<title>cluster_sim</title>
<path fill="#1e293b" stroke="#475569" stroke-width="4" d="M94.5,-338C94.5,-338 1713,-338 1713,-338 1719,-338 1725,-344 1725,-350 1725,-350 1725,-694 1725,-694 1725,-700 1719,-706 1713,-706 1713,-706 94.5,-706 94.5,-706 88.5,-706 82.5,-700 82.5,-694 82.5,-694 82.5,-350 82.5,-350 82.5,-344 88.5,-338 94.5,-338"/>
<text text-anchor="start" x="702.75" y="-671" font-family="Helvetica,Arial,sans-serif" font-weight="bold" font-size="40.00" fill="#f1f5f9">Balancer Services</text>
</g>
<g id="clust2" class="cluster">
<title>cluster_sockets</title>
<path fill="#2a1b07" stroke="#f59e0b" stroke-width="6" d="M604,-8C604,-8 1053,-8 1053,-8 1059,-8 1065,-14 1065,-20 1065,-20 1065,-318 1065,-318 1065,-324 1059,-330 1053,-330 1053,-330 604,-330 604,-330 598,-330 592,-324 592,-318 592,-318 592,-20 592,-20 592,-14 598,-8 604,-8"/>
<text text-anchor="start" x="664.5" y="-295" font-family="Helvetica,Arial,sans-serif" font-weight="bold" font-size="40.00" fill="#f1f5f9">Network Layer</text>
</g>
<g id="clust4" class="cluster">
<title>cluster_pytest</title>
<path fill="#0b2a20" stroke="#22c55e" stroke-width="6" d="M20,-104C20,-104 439,-104 439,-104 445,-104 451,-110 451,-116 451,-116 451,-242 451,-242 451,-248 445,-254 439,-254 439,-254 20,-254 20,-254 14,-254 8,-248 8,-242 8,-242 8,-116 8,-116 8,-110 14,-104 20,-104"/>
<text text-anchor="start" x="58" y="-219" font-family="Helvetica,Arial,sans-serif" font-weight="bold" font-size="40.00" fill="#f1f5f9">Pytest Harness</text>
</g>
<!-- ImuService -->
<g id="node1" class="node">
<title>ImuService</title>
<path fill="#0369a1" stroke="#f1f5f9" stroke-width="4" d="M321.5,-457C321.5,-457 137.5,-457 137.5,-457 131.5,-457 125.5,-451 125.5,-445 125.5,-445 125.5,-403 125.5,-403 125.5,-397 131.5,-391 137.5,-391 137.5,-391 321.5,-391 321.5,-391 327.5,-391 333.5,-397 333.5,-403 333.5,-403 333.5,-445 333.5,-445 333.5,-451 327.5,-457 321.5,-457"/>
<text text-anchor="start" x="134.5" y="-428" font-family="Helvetica,Arial,sans-serif" font-weight="bold" font-size="30.00" fill="#ffffff">ImuService</text>
<text text-anchor="start" x="162" y="-402.8" font-family="Helvetica,Arial,sans-serif" font-size="24.00" fill="#ffffff">ImuService</text>
</g>
<!-- ControlService -->
<g id="node3" class="node">
<title>ControlService</title>
<path fill="#0369a1" stroke="#f1f5f9" stroke-width="4" d="M950,-555C950,-555 707,-555 707,-555 701,-555 695,-549 695,-543 695,-543 695,-501 695,-501 695,-495 701,-489 707,-489 707,-489 950,-489 950,-489 956,-489 962,-495 962,-501 962,-501 962,-543 962,-543 962,-549 956,-555 950,-555"/>
<text text-anchor="start" x="704" y="-526" font-family="Helvetica,Arial,sans-serif" font-weight="bold" font-size="30.00" fill="#ffffff">ControlService</text>
<text text-anchor="start" x="740" y="-500.8" font-family="Helvetica,Arial,sans-serif" font-size="24.00" fill="#ffffff">ControlService</text>
</g>
<!-- ImuService&#45;&gt;ControlService -->
<g id="edge6" class="edge">
<title>ImuService&#45;&gt;ControlService</title>
<path fill="none" stroke="#64748b" stroke-width="3" stroke-dasharray="5,2" d="M333.81,-440.96C429.64,-456.69 573.28,-480.27 680.95,-497.94"/>
<polygon fill="#64748b" stroke="#64748b" stroke-width="3" points="680.28,-502.8 694.89,-500.23 681.87,-493.13 680.28,-502.8"/>
<text text-anchor="middle" x="521.5" y="-487.4" font-family="Helvetica,Arial,sans-serif" font-size="22.00" fill="#cbd5e1">ImuData</text>
</g>
<!-- UdpBridge -->
<g id="node5" class="node">
<title>UdpBridge</title>
<path fill="#0f766e" stroke="#f1f5f9" stroke-width="4" d="M1679,-446C1679,-446 1459,-446 1459,-446 1453,-446 1447,-440 1447,-434 1447,-434 1447,-384 1447,-384 1447,-378 1453,-372 1459,-372 1459,-372 1679,-372 1679,-372 1685,-372 1691,-378 1691,-384 1691,-384 1691,-434 1691,-434 1691,-440 1685,-446 1679,-446"/>
<text text-anchor="start" x="1456" y="-410.6" font-family="Helvetica,Arial,sans-serif" font-weight="bold" font-size="38.00" fill="#ffffff">UdpBridge</text>
<text text-anchor="start" x="1506" y="-383.8" font-family="Helvetica,Arial,sans-serif" font-size="24.00" fill="#ffffff">UdpBridge</text>
</g>
<!-- ImuService&#45;&gt;UdpBridge -->
<g id="edge7" class="edge">
<title>ImuService&#45;&gt;UdpBridge</title>
<path fill="none" stroke="#64748b" stroke-width="3" stroke-dasharray="5,2" d="M333.85,-416.21C583.17,-398.05 1212.52,-356.01 1422,-378 1425.55,-378.37 1429.14,-378.8 1432.76,-379.26"/>
<polygon fill="#64748b" stroke="#64748b" stroke-width="3" points="1432.27,-384.14 1446.82,-381.26 1433.65,-374.44 1432.27,-384.14"/>
<text text-anchor="middle" x="828.5" y="-403.4" font-family="Helvetica,Arial,sans-serif" font-size="22.00" fill="#cbd5e1">ImuData</text>
</g>
<!-- TimeService -->
<g id="node2" class="node">
<title>TimeService</title>
<path fill="#0369a1" stroke="#f1f5f9" stroke-width="4" d="M330.5,-575C330.5,-575 128.5,-575 128.5,-575 122.5,-575 116.5,-569 116.5,-563 116.5,-563 116.5,-521 116.5,-521 116.5,-515 122.5,-509 128.5,-509 128.5,-509 330.5,-509 330.5,-509 336.5,-509 342.5,-515 342.5,-521 342.5,-521 342.5,-563 342.5,-563 342.5,-569 336.5,-575 330.5,-575"/>
<text text-anchor="start" x="125.5" y="-546" font-family="Helvetica,Arial,sans-serif" font-weight="bold" font-size="30.00" fill="#ffffff">TimeService</text>
<text text-anchor="start" x="155" y="-520.8" font-family="Helvetica,Arial,sans-serif" font-size="24.00" fill="#ffffff">TimeService</text>
</g>
<!-- TimeService&#45;&gt;ControlService -->
<g id="edge8" class="edge">
<title>TimeService&#45;&gt;ControlService</title>
<path fill="none" stroke="#64748b" stroke-width="3" stroke-dasharray="5,2" d="M342.79,-538.24C438.38,-535.04 576.38,-530.41 680.7,-526.92"/>
<polygon fill="#64748b" stroke="#64748b" stroke-width="3" points="681.04,-531.81 694.87,-526.44 680.71,-522.01 681.04,-531.81"/>
<text text-anchor="middle" x="521.5" y="-540.4" font-family="Helvetica,Arial,sans-serif" font-size="22.00" fill="#cbd5e1">PhysicsTick</text>
</g>
<!-- MotorService -->
<g id="node4" class="node">
<title>MotorService</title>
<path fill="#0369a1" stroke="#f1f5f9" stroke-width="4" d="M1679,-620C1679,-620 1459,-620 1459,-620 1453,-620 1447,-614 1447,-608 1447,-608 1447,-566 1447,-566 1447,-560 1453,-554 1459,-554 1459,-554 1679,-554 1679,-554 1685,-554 1691,-560 1691,-566 1691,-566 1691,-608 1691,-608 1691,-614 1685,-620 1679,-620"/>
<text text-anchor="start" x="1456" y="-591" font-family="Helvetica,Arial,sans-serif" font-weight="bold" font-size="30.00" fill="#ffffff">MotorService</text>
<text text-anchor="start" x="1489" y="-565.8" font-family="Helvetica,Arial,sans-serif" font-size="24.00" fill="#ffffff">MotorService</text>
</g>
<!-- ControlService&#45;&gt;MotorService -->
<g id="edge4" class="edge">
<title>ControlService&#45;&gt;MotorService</title>
<path fill="none" stroke="#64748b" stroke-width="3" stroke-dasharray="5,2" d="M962.14,-536.15C998.1,-539.84 1037.03,-543.7 1073,-547 1194.65,-558.16 1333.26,-569.22 1432.81,-576.87"/>
<polygon fill="#64748b" stroke="#64748b" stroke-width="3" points="1432.56,-581.77 1446.9,-577.95 1433.31,-571.99 1432.56,-581.77"/>
<text text-anchor="middle" x="1247.5" y="-581.4" font-family="Helvetica,Arial,sans-serif" font-size="22.00" fill="#cbd5e1">MotorTargets</text>
</g>
<!-- ControlService&#45;&gt;UdpBridge -->
<g id="edge5" class="edge">
<title>ControlService&#45;&gt;UdpBridge</title>
<path fill="none" stroke="#64748b" stroke-width="3" stroke-dasharray="5,2" d="M962.27,-516.12C1109.73,-508.68 1338.07,-494.24 1422,-473 1442.37,-467.85 1463.5,-460.12 1483.15,-451.8"/>
<polygon fill="#64748b" stroke="#64748b" stroke-width="3" points="1485.28,-456.21 1496.15,-446.12 1481.36,-447.23 1485.28,-456.21"/>
<text text-anchor="middle" x="1247.5" y="-515.4" font-family="Helvetica,Arial,sans-serif" font-size="22.00" fill="#cbd5e1">MotorTargets, SystemTelemetry</text>
</g>
<!-- UdpBridge&#45;&gt;ControlService -->
<g id="edge9" class="edge">
<title>UdpBridge&#45;&gt;ControlService</title>
<path fill="none" stroke="#64748b" stroke-width="3" stroke-dasharray="5,2" d="M1446.77,-393.53C1318.77,-380.03 1128,-368.91 1073,-414 1059.65,-424.94 1076.7,-439.31 1065,-452 1041.5,-477.5 1009.17,-493.86 976,-504.32"/>
<polygon fill="#64748b" stroke="#64748b" stroke-width="3" points="974.33,-499.7 962.26,-508.31 977.07,-509.11 974.33,-499.7"/>
<text text-anchor="middle" x="1247.5" y="-444.4" font-family="Helvetica,Arial,sans-serif" font-size="22.00" fill="#cbd5e1">ImuData, JoystickCommand</text>
<text text-anchor="middle" x="1247.5" y="-420.4" font-family="Helvetica,Arial,sans-serif" font-size="22.00" fill="#cbd5e1">PhysicsTick</text>
</g>
<!-- TX -->
<g id="node6" class="node">
<title>TX</title>
<path fill="#b45309" stroke="#f1f5f9" stroke-width="4" d="M944.5,-98C944.5,-98 712.5,-98 712.5,-98 706.5,-98 700.5,-92 700.5,-86 700.5,-86 700.5,-44 700.5,-44 700.5,-38 706.5,-32 712.5,-32 712.5,-32 944.5,-32 944.5,-32 950.5,-32 956.5,-38 956.5,-44 956.5,-44 956.5,-86 956.5,-86 956.5,-92 950.5,-98 944.5,-98"/>
<text text-anchor="start" x="744" y="-69" font-family="Helvetica,Arial,sans-serif" font-weight="bold" font-size="30.00" fill="#ffffff">TX Socket</text>
<text text-anchor="start" x="709.5" y="-43.8" font-family="Helvetica,Arial,sans-serif" font-size="24.00" fill="#ffffff">Port 9000 (Inbound)</text>
</g>
<!-- TX&#45;&gt;UdpBridge -->
<g id="edge3" class="edge">
<title>TX&#45;&gt;UdpBridge</title>
<path fill="none" stroke="#f1f5f9" stroke-width="5" d="M956.64,-41.69C1085.33,-25.31 1284.45,-20.53 1422,-114 1505.62,-170.82 1543.39,-290 1558.75,-358.2"/>
<polygon fill="#f1f5f9" stroke="#f1f5f9" stroke-width="5" points="1552.77,-359.54 1561.69,-371.94 1564.75,-356.97 1552.77,-359.54"/>
<text text-anchor="middle" x="1247.5" y="-178" font-family="Helvetica,Arial,sans-serif" font-size="25.00" fill="#cbd5e1">Inbound Traffic:</text>
<text text-anchor="middle" x="1247.5" y="-150" font-family="Helvetica,Arial,sans-serif" font-size="25.00" fill="#cbd5e1">ImuData, JoystickCommand</text>
<text text-anchor="middle" x="1247.5" y="-122" font-family="Helvetica,Arial,sans-serif" font-size="25.00" fill="#cbd5e1">PhysicsTick</text>
</g>
<!-- RX -->
<g id="node7" class="node">
<title>RX</title>
<path fill="#b45309" stroke="#f1f5f9" stroke-width="4" d="M1029,-254C1029,-254 628,-254 628,-254 622,-254 616,-248 616,-242 616,-242 616,-200 616,-200 616,-194 622,-188 628,-188 628,-188 1029,-188 1029,-188 1035,-188 1041,-194 1041,-200 1041,-200 1041,-242 1041,-242 1041,-248 1035,-254 1029,-254"/>
<text text-anchor="start" x="742.5" y="-225" font-family="Helvetica,Arial,sans-serif" font-weight="bold" font-size="30.00" fill="#ffffff">RX Socket</text>
<text text-anchor="start" x="625" y="-199.8" font-family="Helvetica,Arial,sans-serif" font-size="24.00" fill="#ffffff">Client Ephemeral Port (Outbound)</text>
</g>
<!-- TX&#45;&gt;RX -->
<!-- RX&#45;&gt;UdpBridge -->
<g id="edge10" class="edge">
<title>RX&#45;&gt;UdpBridge</title>
<path fill="none" stroke="#f1f5f9" stroke-width="5" d="M1055.37,-209.29C1169.6,-211.44 1307.84,-226.75 1422,-277 1469.54,-297.93 1512.1,-340.54 1538.83,-371.71"/>
<polygon fill="#f1f5f9" stroke="#f1f5f9" stroke-width="5" points="1055.29,-203.16 1041.21,-209.09 1055.12,-215.41 1055.29,-203.16"/>
<text text-anchor="middle" x="1247.5" y="-341" font-family="Helvetica,Arial,sans-serif" font-size="25.00" fill="#cbd5e1">Outbound Traffic:</text>
<text text-anchor="middle" x="1247.5" y="-313" font-family="Helvetica,Arial,sans-serif" font-size="25.00" fill="#cbd5e1">ImuData, MotorTargets</text>
<text text-anchor="middle" x="1247.5" y="-285" font-family="Helvetica,Arial,sans-serif" font-size="25.00" fill="#cbd5e1">SystemTelemetry</text>
</g>
<!-- TestCase -->
<g id="node8" class="node">
<title>TestCase</title>
<path fill="#047857" stroke="#f1f5f9" stroke-width="4" d="M415,-177.5C415,-177.5 44,-177.5 44,-177.5 38,-177.5 32,-171.5 32,-165.5 32,-165.5 32,-140.5 32,-140.5 32,-134.5 38,-128.5 44,-128.5 44,-128.5 415,-128.5 415,-128.5 421,-128.5 427,-134.5 427,-140.5 427,-140.5 427,-165.5 427,-165.5 427,-171.5 421,-177.5 415,-177.5"/>
<text text-anchor="start" x="41" y="-145.3" font-family="Helvetica,Arial,sans-serif" font-weight="bold" font-size="34.00" fill="#ffffff">Test Case / Fixtures</text>
</g>
<!-- TestCase&#45;&gt;TX -->
<g id="edge2" class="edge">
<title>TestCase&#45;&gt;TX</title>
<path fill="none" stroke="#f1f5f9" stroke-width="5" d="M396.8,-128.49C487.91,-115.06 599.62,-98.59 686.43,-85.79"/>
<polygon fill="#f1f5f9" stroke="#f1f5f9" stroke-width="5" points="687.46,-91.83 700.42,-83.73 685.68,-79.71 687.46,-91.83"/>
<text text-anchor="middle" x="521.5" y="-125.4" font-family="Helvetica,Arial,sans-serif" font-size="22.00" fill="#cbd5e1">send_msg</text>
</g>
<!-- TestCase&#45;&gt;RX -->
<g id="edge11" class="edge">
<title>TestCase&#45;&gt;RX</title>
<path fill="none" stroke="#f1f5f9" stroke-width="5" d="M441.15,-176.99C497.84,-183.45 559.18,-190.44 615.93,-196.9"/>
<polygon fill="#f1f5f9" stroke="#f1f5f9" stroke-width="5" points="441.82,-170.91 427.22,-175.41 440.44,-183.08 441.82,-170.91"/>
<text text-anchor="middle" x="521.5" y="-199.4" font-family="Helvetica,Arial,sans-serif" font-size="22.00" fill="#cbd5e1">recv_msg</text>
</g>
</g>
</svg>
