<svg xmlns="http://www.w3.org/2000/svg" width="960" height="650" viewBox="0 0 960 650">
<rect width="960" height="650" fill="white"/>
<style>text{font-family:system-ui,sans-serif;fill:#111827}.grid{stroke:#d1d5db;stroke-width:1}.axis{stroke:#111827;stroke-width:1.5}</style>
<text x="480" y="25" text-anchor="middle" font-size="18" font-weight="600">Steady-state Hann-window spectrum</text>
<text x="18" y="150.0" transform="rotate(-90 18 150.0)" text-anchor="middle" font-size="13">Pitch amplitude [deg]</text>
<line class="grid" x1="70.0" y1="45.0" x2="70.0" y2="255.0"/>
<text x="70.0" y="274.0" text-anchor="middle" font-size="12">0</text>
<line class="grid" x1="240.0" y1="45.0" x2="240.0" y2="255.0"/>
<text x="240.0" y="274.0" text-anchor="middle" font-size="12">2</text>
<line class="grid" x1="410.0" y1="45.0" x2="410.0" y2="255.0"/>
<text x="410.0" y="274.0" text-anchor="middle" font-size="12">4</text>
<line class="grid" x1="580.0" y1="45.0" x2="580.0" y2="255.0"/>
<text x="580.0" y="274.0" text-anchor="middle" font-size="12">6</text>
<line class="grid" x1="750.0" y1="45.0" x2="750.0" y2="255.0"/>
<text x="750.0" y="274.0" text-anchor="middle" font-size="12">8</text>
<line class="grid" x1="920.0" y1="45.0" x2="920.0" y2="255.0"/>
<text x="920.0" y="274.0" text-anchor="middle" font-size="12">10</text>
<line class="grid" x1="70" y1="45.0" x2="920" y2="45.0"/>
<text x="62" y="49.0" text-anchor="end" font-size="11">0.50</text>
<line class="grid" x1="70" y1="97.5" x2="920" y2="97.5"/>
<text x="62" y="101.5" text-anchor="end" font-size="11">0.38</text>
<line class="grid" x1="70" y1="150.0" x2="920" y2="150.0"/>
<text x="62" y="154.0" text-anchor="end" font-size="11">0.25</text>
<line class="grid" x1="70" y1="202.5" x2="920" y2="202.5"/>
<text x="62" y="206.5" text-anchor="end" font-size="11">0.13</text>
<line class="grid" x1="70" y1="255.0" x2="920" y2="255.0"/>
<text x="62" y="259.0" text-anchor="end" font-size="11">0.00</text>
<polyline fill="none" stroke="#2563eb" stroke-width="1.8" points="70.00,254.73 71.62,252.91 73.24,251.63 74.86,253.51 76.48,254.50 78.10,253.95 79.72,253.87 81.34,254.19 82.96,253.10 84.58,253.06 86.20,252.92 87.82,253.74 89.44,253.75 91.06,253.76 92.68,253.71 94.30,253.49 95.92,253.67 97.54,253.80 99.17,253.03 100.79,253.93 102.41,254.42 104.03,253.98 105.65,252.90 107.27,252.78 108.89,252.32 110.51,253.81 112.13,252.84 113.75,252.67 115.37,253.70 116.99,254.29 118.61,253.62 120.23,252.13 121.85,252.17 123.47,252.70 125.09,253.28 126.71,254.90 128.33,253.71 129.95,253.96 131.57,254.40 133.19,254.57 134.81,254.22 136.43,253.73 138.05,253.77 139.67,254.27 141.29,252.57 142.91,253.54 144.53,254.45 146.15,252.85 147.77,253.84 149.39,254.66 151.01,254.39 152.63,254.14 154.25,252.08 155.87,252.37 157.50,253.64 159.12,254.53 160.74,253.96 162.36,253.04 163.98,252.49 165.60,251.81 167.22,252.99 168.84,253.67 170.46,254.57 172.08,254.07 173.70,253.39 175.32,253.65 176.94,253.92 178.56,252.65 180.18,251.93 181.80,252.71 183.42,253.50 185.04,253.39 186.66,254.43 188.28,252.97 189.90,252.66 191.52,251.39 193.14,253.29 194.76,253.79 196.38,253.90 198.00,254.19 199.62,253.24 201.24,253.45 202.86,251.58 204.48,251.48 206.10,253.07 207.72,253.45 209.34,252.08 210.96,251.09 212.58,250.15 214.21,249.31 215.83,250.52 217.45,251.27 219.07,249.57 220.69,247.90 222.31,246.41 223.93,252.04 225.55,252.37 227.17,252.52 228.79,251.74 230.41,252.09 232.03,253.02 233.65,248.12 235.27,240.46 236.89,246.42 238.51,248.91 240.13,247.91 241.75,250.04 243.37,242.15 244.99,239.44 246.61,242.99 248.23,236.25 249.85,233.38 251.47,242.34 253.09,251.31 254.71,238.90 256.33,230.54 257.95,239.82 259.57,214.40 261.19,193.90 262.81,197.89 264.43,135.39 266.05,60.56 267.67,160.78 269.29,193.92 270.91,210.79 272.54,238.17 274.16,234.53 275.78,227.46 277.40,243.37 279.02,251.12 280.64,252.73 282.26,242.78 283.88,245.34 285.50,249.36 287.12,249.49 288.74,253.39 290.36,252.58 291.98,250.44 293.60,249.57 295.22,248.93 296.84,249.31 298.46,245.22 300.08,246.49 301.70,250.49 303.32,253.45 304.94,249.44 306.56,244.67 308.18,243.04 309.80,243.30 311.42,249.50 313.04,247.33 314.66,249.19 316.28,254.49 317.90,250.19 319.52,248.89 321.14,249.99 322.76,254.56 324.38,251.15 326.00,254.00 327.62,250.33 329.25,251.03 330.87,250.68 332.49,250.93 334.11,250.16 335.73,248.77 337.35,244.88 338.97,250.44 340.59,251.28 342.21,249.50 343.83,250.23 345.45,244.90 347.07,247.33 348.69,250.61 350.31,248.19 351.93,248.98 353.55,248.01 355.17,251.67 356.79,254.09 358.41,249.72 360.03,249.79 361.65,248.50 363.27,246.60 364.89,251.11 366.51,252.01 368.13,251.71 369.75,246.72 371.37,247.52 372.99,247.91 374.61,251.00 376.23,251.73 377.85,251.24 379.47,253.05 381.09,252.19 382.71,254.78 384.33,251.09 385.96,249.34 387.58,250.30 389.20,250.34 390.82,253.22 392.44,249.52 394.06,252.91 395.68,252.54 397.30,248.28 398.92,249.29 400.54,252.57 402.16,250.62 403.78,248.54 405.40,252.10 407.02,250.83 408.64,254.09 410.26,253.57 411.88,254.20 413.50,253.29 415.12,252.36 416.74,253.54 418.36,254.49 419.98,252.67 421.60,252.79 423.22,252.71 424.84,254.74 426.46,249.75 428.08,249.19 429.70,253.62 431.32,253.49 432.94,253.20 434.56,250.38 436.18,248.36 437.80,251.19 439.42,254.26 441.04,252.97 442.66,252.43 444.29,251.65 445.91,251.19 447.53,251.03 449.15,251.12 450.77,252.57 452.39,253.75 454.01,252.92 455.63,251.26 457.25,250.26 458.87,251.37 460.49,247.92 462.11,245.13 463.73,249.12 465.35,245.17 466.97,249.62 468.59,251.13 470.21,253.80 471.83,250.99 473.45,250.73 475.07,251.77 476.69,253.32 478.31,254.02 479.93,253.15 481.55,253.96 483.17,252.37 484.79,251.50 486.41,253.94 488.03,253.29 489.65,251.55 491.27,252.36 492.89,254.33 494.51,252.15 496.13,250.54 497.75,252.51 499.37,253.15 501.00,249.72 502.62,250.09 504.24,254.23 505.86,253.82 507.48,252.85 509.10,253.48 510.72,253.73 512.34,252.36 513.96,250.25 515.58,251.07 517.20,253.48 518.82,253.01 520.44,254.41 522.06,252.85 523.68,253.17 525.30,253.34 526.92,252.43 528.54,252.74 530.16,253.72 531.78,253.21 533.40,253.38 535.02,253.70 536.64,254.44 538.26,252.58 539.88,251.93 541.50,248.96 543.12,248.93 544.74,251.14 546.36,253.79 547.98,253.61 549.60,252.84 551.22,252.76 552.84,254.11 554.46,252.00 556.08,250.64 557.70,251.71 559.33,252.91 560.95,254.25 562.57,254.55 564.19,253.78 565.81,253.56 567.43,253.45 569.05,252.90 570.67,251.69 572.29,252.75 573.91,254.40 575.53,254.35 577.15,254.07 578.77,253.76 580.39,252.75 582.01,252.17 583.63,253.10 585.25,253.34 586.87,253.42 588.49,253.34 590.11,253.98 591.73,251.89 593.35,249.09 594.97,249.74 596.59,254.03 598.21,253.09 599.83,252.92 601.45,254.20 603.07,252.53 604.69,252.44 606.31,253.85 607.93,253.93 609.55,253.58 611.17,252.89 612.79,253.74 614.41,254.68 616.04,253.91 617.66,253.40 619.28,254.17 620.90,254.69 622.52,254.20 624.14,254.31 625.76,253.34 627.38,252.03 629.00,251.42 630.62,253.36 632.24,253.30 633.86,252.97 635.48,253.33 637.10,253.65 638.72,253.25 640.34,253.36 641.96,252.62 643.58,252.46 645.20,253.67 646.82,254.70 648.44,254.07 650.06,252.80 651.68,251.11 653.30,251.39 654.92,253.81 656.54,253.73 658.16,254.22 659.78,254.80 661.40,252.58 663.02,252.53 664.64,253.33 666.26,253.31 667.88,253.87 669.50,253.80 671.12,253.19 672.74,253.72 674.37,253.60 675.99,253.61 677.61,253.75 679.23,252.99 680.85,254.47 682.47,254.69 684.09,253.95 685.71,252.59 687.33,252.08 688.95,253.35 690.57,254.54 692.19,254.15 693.81,253.52 695.43,253.81 697.05,254.36 698.67,253.42 700.29,253.77 701.91,254.32 703.53,253.40 705.15,252.54 706.77,253.01 708.39,253.28 710.01,253.30 711.63,254.71 713.25,253.55 714.87,252.87 716.49,252.62 718.11,252.12 719.73,252.28 721.35,253.13 722.97,253.99 724.59,253.42 726.21,252.91 727.83,253.91 729.45,254.54 731.08,252.73 732.70,252.60 734.32,253.54 735.94,254.15 737.56,252.67 739.18,252.91 740.80,252.89 742.42,252.90 744.04,253.08 745.66,252.74 747.28,253.81 748.90,254.50 750.52,254.33 752.14,253.49 753.76,253.27 755.38,253.00 757.00,253.25 758.62,253.26 760.24,253.53 761.86,253.38 763.48,253.04 765.10,253.27 766.72,253.02 768.34,253.45 769.96,253.69 771.58,253.64 773.20,254.50 774.82,253.72 776.44,253.56 778.06,254.46 779.68,253.81 781.30,254.06 782.92,254.38 784.54,254.79 786.16,254.57 787.78,253.73 789.41,253.22 791.03,253.58 792.65,254.42 794.27,254.65 795.89,253.94 797.51,253.56 799.13,253.30 800.75,253.77 802.37,254.74 803.99,253.63 805.61,253.33 807.23,253.89 808.85,253.44 810.47,253.57 812.09,253.50 813.71,254.03 815.33,254.68 816.95,254.24 818.57,254.70 820.19,253.59 821.81,253.04 823.43,253.66 825.05,254.63 826.67,253.97 828.29,253.43 829.91,253.78 831.53,254.59 833.15,254.08 834.77,254.16 836.39,254.71 838.01,254.40 839.63,253.82 841.25,254.05 842.87,253.82 844.49,254.05 846.12,254.32 847.74,253.84 849.36,253.74 850.98,252.37 852.60,251.86 854.22,252.62 855.84,253.53 857.46,253.70 859.08,254.58 860.70,253.50 862.32,252.96 863.94,252.12 865.56,252.43 867.18,254.19 868.80,254.20 870.42,254.60 872.04,253.86 873.66,254.24 875.28,254.20 876.90,253.58 878.52,252.81 880.14,252.12 881.76,253.14 883.38,254.10 885.00,254.41 886.62,254.27 888.24,254.25 889.86,253.98 891.48,253.93 893.10,253.97 894.72,254.74 896.34,253.95 897.96,253.16 899.58,253.37 901.20,253.95 902.83,254.70 904.45,253.34 906.07,252.98 907.69,253.41 909.31,254.48 910.93,253.79 912.55,253.41 914.17,253.15 915.79,253.08 917.41,254.15 919.03,254.51"/>
<line class="axis" x1="70" y1="255.0" x2="920" y2="255.0"/>
<text x="18" y="445.0" transform="rotate(-90 18 445.0)" text-anchor="middle" font-size="13">Balance-command amplitude [steps/s]</text>
<line class="grid" x1="70.0" y1="340.0" x2="70.0" y2="550.0"/>
<text x="70.0" y="569.0" text-anchor="middle" font-size="12">0</text>
<line class="grid" x1="240.0" y1="340.0" x2="240.0" y2="550.0"/>
<text x="240.0" y="569.0" text-anchor="middle" font-size="12">2</text>
<line class="grid" x1="410.0" y1="340.0" x2="410.0" y2="550.0"/>
<text x="410.0" y="569.0" text-anchor="middle" font-size="12">4</text>
<line class="grid" x1="580.0" y1="340.0" x2="580.0" y2="550.0"/>
<text x="580.0" y="569.0" text-anchor="middle" font-size="12">6</text>
<line class="grid" x1="750.0" y1="340.0" x2="750.0" y2="550.0"/>
<text x="750.0" y="569.0" text-anchor="middle" font-size="12">8</text>
<line class="grid" x1="920.0" y1="340.0" x2="920.0" y2="550.0"/>
<text x="920.0" y="569.0" text-anchor="middle" font-size="12">10</text>
<line class="grid" x1="70" y1="340.0" x2="920" y2="340.0"/>
<text x="62" y="344.0" text-anchor="end" font-size="11">243.89</text>
<line class="grid" x1="70" y1="392.5" x2="920" y2="392.5"/>
<text x="62" y="396.5" text-anchor="end" font-size="11">182.92</text>
<line class="grid" x1="70" y1="445.0" x2="920" y2="445.0"/>
<text x="62" y="449.0" text-anchor="end" font-size="11">121.95</text>
<line class="grid" x1="70" y1="497.5" x2="920" y2="497.5"/>
<text x="62" y="501.5" text-anchor="end" font-size="11">60.97</text>
<line class="grid" x1="70" y1="550.0" x2="920" y2="550.0"/>
<text x="62" y="554.0" text-anchor="end" font-size="11">0.00</text>
<polyline fill="none" stroke="#dc2626" stroke-width="1.8" points="70.00,549.45 71.62,547.54 73.24,545.87 74.86,547.31 76.48,549.29 78.10,549.14 79.72,548.70 81.34,547.67 82.96,545.75 84.58,546.14 86.20,545.47 87.82,546.06 89.44,547.67 91.06,548.22 92.68,546.39 94.30,546.17 95.92,549.57 97.54,547.67 99.17,548.43 100.79,547.41 102.41,545.91 104.03,549.48 105.65,546.42 107.27,546.66 108.89,546.32 110.51,548.21 112.13,548.00 113.75,546.82 115.37,547.30 116.99,548.59 118.61,547.48 120.23,544.71 121.85,544.91 123.47,545.37 125.09,547.79 126.71,547.08 128.33,546.88 129.95,549.63 131.57,548.29 133.19,548.99 134.81,549.39 136.43,547.74 138.05,546.17 139.67,549.37 141.29,546.62 142.91,547.50 144.53,549.28 146.15,548.08 147.77,548.88 149.39,548.99 151.01,549.59 152.63,548.25 154.25,548.33 155.87,548.33 157.50,548.95 159.12,548.55 160.74,547.47 162.36,545.62 163.98,547.24 165.60,547.91 167.22,548.87 168.84,549.20 170.46,547.87 172.08,547.57 173.70,548.01 175.32,549.25 176.94,548.40 178.56,549.38 180.18,547.92 181.80,546.59 183.42,546.94 185.04,547.73 186.66,548.10 188.28,547.15 189.90,547.83 191.52,548.20 193.14,548.37 194.76,548.41 196.38,547.89 198.00,549.32 199.62,546.81 201.24,546.79 202.86,545.52 204.48,546.47 206.10,548.63 207.72,549.64 209.34,547.80 210.96,547.21 212.58,545.33 214.21,542.34 215.83,543.46 217.45,544.92 219.07,542.97 220.69,541.65 222.31,540.31 223.93,546.23 225.55,547.24 227.17,548.11 228.79,545.47 230.41,545.11 232.03,545.84 233.65,542.87 235.27,535.53 236.89,540.56 238.51,543.13 240.13,542.75 241.75,544.26 243.37,537.38 244.99,534.06 246.61,537.25 248.23,530.99 249.85,529.15 251.47,538.79 253.09,546.03 254.71,533.42 256.33,526.68 257.95,535.18 259.57,508.64 261.19,489.12 262.81,493.52 264.43,430.25 266.05,355.56 267.67,455.81 269.29,488.63 270.91,505.21 272.54,533.13 274.16,529.11 275.78,521.43 277.40,538.53 279.02,545.18 280.64,546.34 282.26,538.60 283.88,540.22 285.50,544.60 287.12,544.29 288.74,547.97 290.36,546.50 291.98,546.07 293.60,545.35 295.22,544.43 296.84,544.80 298.46,541.49 300.08,541.80 301.70,545.36 303.32,548.44 304.94,545.28 306.56,542.14 308.18,538.78 309.80,539.26 311.42,544.71 313.04,541.24 314.66,543.05 316.28,549.18 317.90,545.42 319.52,544.87 321.14,546.07 322.76,549.67 324.38,547.40 326.00,549.44 327.62,546.79 329.25,547.01 330.87,546.44 332.49,547.06 334.11,546.37 335.73,544.47 337.35,542.37 338.97,547.27 340.59,546.54 342.21,544.77 343.83,545.92 345.45,541.27 347.07,543.04 348.69,544.57 350.31,542.44 351.93,544.25 353.55,544.25 355.17,547.24 356.79,548.72 358.41,544.72 360.03,544.55 361.65,544.39 363.27,543.53 364.89,545.80 366.51,546.01 368.13,548.62 369.75,544.09 371.37,544.80 372.99,545.05 374.61,547.70 376.23,547.42 377.85,547.95 379.47,549.41 381.09,547.58 382.71,548.64 384.33,545.70 385.96,545.72 387.58,547.17 389.20,546.83 390.82,548.22 392.44,546.02 394.06,548.65 395.68,548.69 397.30,544.72 398.92,544.08 400.54,546.40 402.16,546.47 403.78,545.03 405.40,547.92 407.02,546.27 408.64,548.81 410.26,548.91 411.88,548.28 413.50,548.45 415.12,547.34 416.74,547.30 418.36,549.00 419.98,547.30 421.60,547.96 423.22,548.65 424.84,549.49 426.46,545.77 428.08,545.59 429.70,548.00 431.32,549.01 432.94,547.59 434.56,545.85 436.18,544.90 437.80,547.37 439.42,549.63 441.04,548.71 442.66,547.85 444.29,546.76 445.91,545.79 447.53,547.22 449.15,547.61 450.77,547.61 452.39,548.43 454.01,547.99 455.63,545.47 457.25,544.46 458.87,547.04 460.49,545.63 462.11,542.96 463.73,544.70 465.35,542.57 466.97,545.28 468.59,547.06 470.21,548.70 471.83,547.00 473.45,546.82 475.07,547.82 476.69,549.22 478.31,548.97 479.93,548.69 481.55,549.18 483.17,547.27 484.79,546.62 486.41,548.92 488.03,547.34 489.65,546.90 491.27,547.46 492.89,549.50 494.51,546.99 496.13,546.99 497.75,548.82 499.37,549.10 501.00,547.24 502.62,547.08 504.24,548.20 505.86,549.70 507.48,548.73 509.10,547.69 510.72,548.46 512.34,547.23 513.96,545.71 515.58,545.86 517.20,548.27 518.82,548.45 520.44,549.38 522.06,548.66 523.68,548.96 525.30,548.70 526.92,548.12 528.54,548.31 530.16,549.17 531.78,548.57 533.40,548.73 535.02,548.39 536.64,548.57 538.26,547.22 539.88,547.08 541.50,546.13 543.12,546.81 544.74,547.98 546.36,549.44 547.98,548.77 549.60,548.50 551.22,549.06 552.84,548.97 554.46,548.11 556.08,546.52 557.70,546.71 559.33,547.55 560.95,548.12 562.57,548.91 564.19,549.48 565.81,549.21 567.43,548.34 569.05,547.77 570.67,546.80 572.29,548.44 573.91,549.09 575.53,548.88 577.15,549.30 578.77,548.73 580.39,548.55 582.01,547.95 583.63,548.04 585.25,547.87 586.87,548.41 588.49,548.53 590.11,548.55 591.73,547.47 593.35,545.66 594.97,545.93 596.59,549.12 598.21,548.20 599.83,548.36 601.45,549.06 603.07,549.10 604.69,548.20 606.31,548.63 607.93,549.25 609.55,549.05 611.17,548.57 612.79,548.77 614.41,548.71 616.04,549.90 617.66,549.48 619.28,549.83 620.90,548.89 622.52,548.20 624.14,549.03 625.76,548.66 627.38,547.77 629.00,546.88 630.62,548.75 632.24,548.45 633.86,548.69 635.48,549.76 637.10,549.43 638.72,549.21 640.34,549.19 641.96,548.46 643.58,547.93 645.20,548.87 646.82,549.11 648.44,549.62 650.06,548.34 651.68,546.49 653.30,546.77 654.92,548.91 656.54,548.18 658.16,547.94 659.78,549.18 661.40,548.28 663.02,547.71 664.64,548.17 666.26,549.10 667.88,549.57 669.50,548.73 671.12,548.08 672.74,547.42 674.37,549.53 675.99,548.92 677.61,548.91 679.23,548.58 680.85,549.43 682.47,549.58 684.09,549.74 685.71,548.32 687.33,547.59 688.95,548.86 690.57,549.23 692.19,548.59 693.81,548.38 695.43,548.94 697.05,549.09 698.67,548.39 700.29,549.04 701.91,549.05 703.53,549.00 705.15,548.49 706.77,548.90 708.39,548.49 710.01,548.39 711.63,549.55 713.25,548.29 714.87,547.82 716.49,547.79 718.11,547.22 719.73,547.81 721.35,548.58 722.97,548.54 724.59,548.75 726.21,548.45 727.83,548.26 729.45,549.56 731.08,547.99 732.70,547.09 734.32,547.33 735.94,549.15 737.56,548.90 739.18,548.44 740.80,547.56 742.42,546.60 744.04,546.92 745.66,547.83 747.28,548.78 748.90,548.44 750.52,548.98 752.14,548.44 753.76,548.67 755.38,548.95 757.00,548.44 758.62,547.75 760.24,548.83 761.86,549.14 763.48,549.07 765.10,548.80 766.72,547.31 768.34,547.30 769.96,548.32 771.58,548.69 773.20,549.29 774.82,548.44 776.44,547.50 778.06,549.53 779.68,549.70 781.30,549.12 782.92,548.80 784.54,548.67 786.16,548.61 787.78,549.03 789.41,548.61 791.03,548.79 792.65,549.72 794.27,549.06 795.89,548.06 797.51,547.93 799.13,548.09 800.75,549.50 802.37,548.62 803.99,548.24 805.61,548.65 807.23,549.11 808.85,549.45 810.47,549.13 812.09,548.42 813.71,548.86 815.33,549.09 816.95,548.54 818.57,549.52 820.19,548.03 821.81,547.53 823.43,547.98 825.05,548.76 826.67,547.91 828.29,547.79 829.91,548.67 831.53,549.53 833.15,548.97 834.77,548.96 836.39,549.61 838.01,549.40 839.63,547.89 841.25,547.58 842.87,548.43 844.49,549.58 846.12,549.80 847.74,548.73 849.36,549.14 850.98,547.44 852.60,546.28 854.22,547.17 855.84,548.51 857.46,547.55 859.08,548.92 860.70,548.00 862.32,546.16 863.94,545.15 865.56,546.14 867.18,547.97 868.80,548.70 870.42,549.38 872.04,549.20 873.66,549.31 875.28,548.17 876.90,547.17 878.52,548.00 880.14,547.09 881.76,547.89 883.38,549.15 885.00,548.86 886.62,549.12 888.24,549.30 889.86,548.70 891.48,547.95 893.10,547.47 894.72,548.65 896.34,548.65 897.96,547.84 899.58,548.48 901.20,547.84 902.83,548.79 904.45,548.73 906.07,548.10 907.69,548.54 909.31,548.76 910.93,548.00 912.55,548.04 914.17,547.34 915.79,546.97 917.41,548.61 919.03,549.40"/>
<line class="axis" x1="70" y1="550.0" x2="920" y2="550.0"/>
<text x="495" y="625" text-anchor="middle" font-size="13">Frequency [Hz]</text>
</svg>
